<?xml version="1.0" encoding="UTF-8" standalone="no"?>
<!-- Created with Inkscape (http://www.inkscape.org/) -->

<svg
   xmlns:dc="http://purl.org/dc/elements/1.1/"
   xmlns:cc="http://creativecommons.org/ns#"
   xmlns:rdf="http://www.w3.org/1999/02/22-rdf-syntax-ns#"
   xmlns:svg="http://www.w3.org/2000/svg"
   xmlns="http://www.w3.org/2000/svg"
   xmlns:sodipodi="http://sodipodi.sourceforge.net/DTD/sodipodi-0.dtd"
   xmlns:inkscape="http://www.inkscape.org/namespaces/inkscape"
   width="175"
   height="50"
   viewBox="0 0 175 49.999997"
   id="svg4910"
   version="1.1"
   inkscape:version="0.91 r13725"
   sodipodi:docname="glasgow.svg">
  <defs
     id="defs4912" />
  <sodipodi:namedview
     id="base"
     pagecolor="#ffffff"
     bordercolor="#666666"
     borderopacity="1.0"
     inkscape:pageopacity="0.0"
     inkscape:pageshadow="2"
     inkscape:zoom="1.979899"
     inkscape:cx="73.767137"
     inkscape:cy="36.263409"
     inkscape:document-units="px"
     inkscape:current-layer="layer1"
     showgrid="false"
     units="px"
     inkscape:snap-global="false"
     inkscape:window-width="1366"
     inkscape:window-height="719"
     inkscape:window-x="1024"
     inkscape:window-y="27"
     inkscape:window-maximized="1" />
  <metadata
     id="metadata4915">
    <rdf:RDF>
      <cc:Work
         rdf:about="">
        <dc:format>image/svg+xml</dc:format>
        <dc:type
           rdf:resource="http://purl.org/dc/dcmitype/StillImage" />
        <dc:title></dc:title>
      </cc:Work>
    </rdf:RDF>
  </metadata>
  <g
     inkscape:label="Layer 1"
     inkscape:groupmode="layer"
     id="layer1"
     transform="translate(0,-1002.3622)">
    <path
       inkscape:connector-curvature="0"
       id="path5463"
       style="font-style:normal;font-variant:normal;font-weight:normal;font-stretch:normal;font-size:medium;line-height:125%;font-family:'Droid Sans Mono';-inkscape-font-specification:'Droid Sans Mono';letter-spacing:0px;word-spacing:0px;fill:#1a1a1a;fill-opacity:1;stroke:none;stroke-width:1px;stroke-linecap:butt;stroke-linejoin:miter;stroke-opacity:1"
       d="m 13.126418,1018.3736 8.483576,0 0,32.1534 c -11.223351,0.9177 -19.5844656,-17.9022 -19.6408882,-28.929 0.11123,-7.5011 4.4417143,-17.3819 12.2227842,-17.5466 2.573217,0 4.891793,0.9 6.955728,2.7 l -1.447434,5.0861 c -1.956717,-1.7581 -3.833022,-2.6372 -5.628913,-2.6372 -6.8574818,1.2396 -7.7938562,6.8575 -8.1619264,12.4605 -0.4340532,3.9396 3.2959708,18.9152 11.9815454,24.4787 l 0,-22.6171 -4.764472,0 z"
       sodipodi:nodetypes="ccccccccccccc" />
    <path
       inkscape:connector-curvature="0"
       id="path5465"
       style="font-style:normal;font-variant:normal;font-weight:normal;font-stretch:normal;font-size:medium;line-height:125%;font-family:'Droid Sans Mono';-inkscape-font-specification:'Droid Sans Mono';letter-spacing:0px;word-spacing:0px;fill:#1a1a1a;fill-opacity:1;stroke:none;stroke-width:1px;stroke-linecap:butt;stroke-linejoin:miter;stroke-opacity:1"
       d="m 28.98789,1050.6109 0,-45.9002 3.75931,0 0,40.6885 12.765571,0 0,5.2117 -16.524881,0 z" />
    <path
       inkscape:connector-curvature="0"
       id="path5467"
       style="font-style:normal;font-variant:normal;font-weight:normal;font-stretch:normal;font-size:medium;line-height:125%;font-family:'Droid Sans Mono';-inkscape-font-specification:'Droid Sans Mono';letter-spacing:0px;word-spacing:0px;fill:#1a1a1a;fill-opacity:1;stroke:none;stroke-width:1px;stroke-linecap:butt;stroke-linejoin:miter;stroke-opacity:1"
       d="m 69.174309,1050.6109 -5.399945,-26.2222 -4.986819,0 -5.313883,26.2222 -3.81962,0 9.709875,-46.0886 3.920136,0 9.750082,46.0886 z m -6.264525,-30.2417 -0.369551,-2.4724 c -0.522685,-2.5953 -0.938152,-4.9605 -1.246402,-7.0954 -0.268044,2.0721 -0.576294,3.9873 -0.924751,5.7454 l -0.516062,3.8224 z"
       sodipodi:nodetypes="ccccccccccccccc" />
    <path
       inkscape:connector-curvature="0"
       id="path5469"
       style="font-style:normal;font-variant:normal;font-weight:normal;font-stretch:normal;font-size:medium;line-height:125%;font-family:'Droid Sans Mono';-inkscape-font-specification:'Droid Sans Mono';letter-spacing:0px;word-spacing:0px;fill:#1a1a1a;fill-opacity:1;stroke:none;stroke-width:1px;stroke-linecap:butt;stroke-linejoin:miter;stroke-opacity:1"
       d="m 76.512001,1049.0725 0,-5.5884 c 2.827859,1.8 5.602109,2.7 8.322748,2.7 4.690763,0 7.036145,-6.5116 7.036145,-11.5349 0,-2.1767 -0.475779,-5.8512 -1.427336,-7.0233 -0.938152,-1.1721 -2.84796,-2.5639 -5.729424,-4.1756 -3.251933,-1.4138 -7.935721,-2.8551 -7.820171,-9.7512 0.08714,-5.6288 4.810229,-9.5832 9.669671,-9.6477 3.069095,0 5.856746,0.8163 8.362952,2.4489 l -1.286605,5.1488 c -2.586621,-1.6325 -4.999012,-2.4488 -7.237172,-2.4488 -3.926837,0 -5.123668,0.5858 -5.511449,4.5616 0.605904,5.4424 3.080837,3.6963 6.375883,5.3245 3.296935,1.8419 5.494893,3.7465 6.593874,5.714 1.112377,1.9465 2.047373,6.4581 2.047373,9.5349 0,4.0186 -1.310258,11.1791 -3.173161,13.4814 -1.849497,2.2814 -4.483023,3.4221 -7.90058,3.4221 -3.551575,0 -6.325824,-0.7221 -8.322748,-2.1663 z"
       sodipodi:nodetypes="ccssccccccscccscsc" />
    <path
       inkscape:connector-curvature="0"
       id="path5473"
       style="font-style:normal;font-variant:normal;font-weight:normal;font-stretch:normal;font-size:medium;line-height:125%;font-family:'Droid Sans Mono';-inkscape-font-specification:'Droid Sans Mono';letter-spacing:0px;word-spacing:0px;fill:#1a1a1a;fill-opacity:1;stroke:none;stroke-width:1px;stroke-linecap:butt;stroke-linejoin:miter;stroke-opacity:1"
       d="m 135.43464,1051.2388 c -3.91567,-0.1786 -11.16908,0.092 -10.69494,-15.7036 0.28089,-9.3575 3.41671,-15.2241 10.73515,-15.5466 7.31844,-0.3225 10.97844,7.781 10.63462,15.6094 0,7.5559 -1.12001,8.5389 -2.50639,11.0945 -1.41695,2.6119 -4.75443,4.702 -8.16844,4.5463 z m 0,-5.1175 c 8.04575,-0.4411 6.71686,-7.5111 6.71448,-10.5233 -0.13655,-3.9852 -1.76725,-10.3355 -6.67427,-10.4605 -1.39153,0.2679 -6.7748,0.1178 -6.7748,10.4605 0,7.1703 2.24486,10.5233 6.73459,10.5233 z"
       sodipodi:nodetypes="sszcsscccsc" />
    <path
       inkscape:connector-curvature="0"
       id="path5475"
       style="font-style:normal;font-variant:normal;font-weight:normal;font-stretch:normal;font-size:medium;line-height:125%;font-family:'Droid Sans Mono';-inkscape-font-specification:'Droid Sans Mono';letter-spacing:0px;word-spacing:0px;fill:#1a1a1a;fill-opacity:1;stroke:none;stroke-width:1px;stroke-linecap:butt;stroke-linejoin:miter;stroke-opacity:1"
       d="m 158.35235,1018.9643 3.55828,0 2.91497,16.357 q 1.22631,6.8756 1.44744,9.6384 0.0402,-1.6639 1.30671,-19.4338 l 1.40723,-20.8152 3.41756,0 -3.75931,45.9002 -3.81963,0 -3.37734,-18.2094 q -0.80414,-4.3326 -1.32682,-8.8535 -0.64331,5.4314 -1.30671,8.9163 l -3.13611,18.1466 -3.81962,0 -4.08096,-45.9002 3.41755,0 1.76909,20.8152 q 0.46237,5.5256 0.80413,11.8675 0.34175,6.3419 0.34175,7.5663 0.48248,-4.7407 1.40724,-9.7954 l 2.83455,-16.2 z" />
    <path
       inkscape:connector-curvature="0"
       id="path5463-3"
       style="font-style:normal;font-variant:normal;font-weight:normal;font-stretch:normal;font-size:medium;line-height:125%;font-family:'Droid Sans Mono';-inkscape-font-specification:'Droid Sans Mono';letter-spacing:0px;word-spacing:0px;fill:#1a1a1a;fill-opacity:1;stroke:none;stroke-width:1px;stroke-linecap:butt;stroke-linejoin:miter;stroke-opacity:1"
       d="m 111.12639,1018.3736 8.48358,0 0,32.1534 c -11.22335,0.9177 -19.58446,-17.9022 -19.640886,-28.929 0.111226,-7.5011 4.441716,-17.3819 12.222786,-17.5466 2.57321,0 4.89179,0.9 6.95572,2.7 l -1.44743,5.0861 c -1.95672,-1.7581 -3.83302,-2.6372 -5.62891,-2.6372 -6.85748,1.2396 -7.79386,6.8575 -8.16193,12.4605 -0.43405,3.9396 3.29597,18.9152 11.98155,24.4787 l 0,-22.6171 -4.76448,0 z"
       sodipodi:nodetypes="ccccccccccccc" />
    <rect
       style="color:#000000;clip-rule:nonzero;display:inline;overflow:visible;visibility:visible;opacity:1;isolation:auto;mix-blend-mode:normal;color-interpolation:sRGB;color-interpolation-filters:linearRGB;solid-color:#000000;solid-opacity:1;fill:#1a1a1a;fill-opacity:1;fill-rule:evenodd;stroke:none;stroke-width:0.8680771;stroke-linecap:butt;stroke-linejoin:miter;stroke-miterlimit:4;stroke-dasharray:none;stroke-dashoffset:0;stroke-opacity:1;marker:none;color-rendering:auto;image-rendering:auto;shape-rendering:auto;text-rendering:auto;enable-background:accumulate"
       id="rect5499"
       width="6.5974374"
       height="5.6549463"
       x="131.79895"
       y="1008.8004"
       rx="1.1874744"
       ry="1.9193276" />
    <rect
       style="color:#000000;clip-rule:nonzero;display:inline;overflow:visible;visibility:visible;opacity:1;isolation:auto;mix-blend-mode:normal;color-interpolation:sRGB;color-interpolation-filters:linearRGB;solid-color:#000000;solid-opacity:1;fill:#1a1a1a;fill-opacity:1;fill-rule:evenodd;stroke:none;stroke-width:0.8680771;stroke-linecap:butt;stroke-linejoin:miter;stroke-miterlimit:4;stroke-dasharray:none;stroke-dashoffset:0;stroke-opacity:1;marker:none;color-rendering:auto;image-rendering:auto;shape-rendering:auto;text-rendering:auto;enable-background:accumulate"
       id="rect5499-0"
       width="6.5974374"
       height="5.6549463"
       x="156.81042"
       y="1008.8004"
       rx="1.1874744"
       ry="1.9193276" />
    <rect
       style="color:#000000;clip-rule:nonzero;display:inline;overflow:visible;visibility:visible;opacity:1;isolation:auto;mix-blend-mode:normal;color-interpolation:sRGB;color-interpolation-filters:linearRGB;solid-color:#000000;solid-opacity:1;fill:#1a1a1a;fill-opacity:1;fill-rule:evenodd;stroke:none;stroke-width:0.8680771;stroke-linecap:butt;stroke-linejoin:miter;stroke-miterlimit:4;stroke-dasharray:none;stroke-dashoffset:0;stroke-opacity:1;marker:none;color-rendering:auto;image-rendering:auto;shape-rendering:auto;text-rendering:auto;enable-background:accumulate"
       id="rect5499-9"
       width="6.5974374"
       height="5.6549463"
       x="39.380219"
       y="1005.088"
       rx="1.1874744"
       ry="1.9193276" />
    <rect
       style="color:#000000;clip-rule:nonzero;display:inline;overflow:visible;visibility:visible;opacity:1;isolation:auto;mix-blend-mode:normal;color-interpolation:sRGB;color-interpolation-filters:linearRGB;solid-color:#000000;solid-opacity:1;fill:#1a1a1a;fill-opacity:1;fill-rule:evenodd;stroke:none;stroke-width:0.8680771;stroke-linecap:butt;stroke-linejoin:miter;stroke-miterlimit:4;stroke-dasharray:none;stroke-dashoffset:0;stroke-opacity:1;marker:none;color-rendering:auto;image-rendering:auto;shape-rendering:auto;text-rendering:auto;enable-background:accumulate"
       id="rect5499-4"
       width="6.5974374"
       height="5.6549463"
       x="39.380219"
       y="1016.1997"
       rx="1.1874744"
       ry="1.9193276" />
  </g>
</svg>
